<svg width="507" height="122" viewBox="0 0 507 122" fill="none" xmlns="http://www.w3.org/2000/svg">
<path d="M52.192 5.77599C44.4267 2.78933 37.088 1.296 30.176 1.296C23.3493 1.296 18.016 2.74666 14.176 5.64799C10.336 8.54933 8.416 12.56 8.416 17.68C8.416 23.9093 11.6587 28.7307 18.144 32.144C21.0453 33.5947 24.2027 34.96 27.616 36.24C31.1147 37.4347 34.6133 38.8 38.112 40.336C41.6107 41.872 44.8107 43.6213 47.712 45.584C50.6133 47.5467 52.96 50.2773 54.752 53.776C56.544 57.1893 57.44 61.584 57.44 66.96C57.44 72.2507 55.9467 76.7733 52.96 80.528C49.9733 84.2827 46.3467 86.8427 42.08 88.208C37.8987 89.488 32.992 90.128 27.36 90.128C16.864 90.128 7.904 87.5253 0.48 82.32L1.12 81.296C3.936 83.5147 7.56267 85.3493 12 86.8C16.5227 88.1653 21.1307 88.848 25.824 88.848C32.736 88.848 38.624 87.2693 43.488 84.112C48.4373 80.8693 50.912 76.1333 50.912 69.904C50.912 63.0773 47.6693 57.744 41.184 53.904C38.2827 52.1973 35.0827 50.6187 31.584 49.168C28.1707 47.7173 24.7147 46.224 21.216 44.688C17.7173 43.0667 14.5173 41.2747 11.616 39.312C5.13067 35.0453 1.888 28.9867 1.888 21.136C1.888 14.9067 3.97867 9.872 8.16 6.032C12.3413 2.10666 18.6133 0.143997 26.976 0.143997C35.424 0.143997 44 1.59466 52.704 4.49599L52.192 5.77599ZM80.239 112.912C77.5083 118.971 74.1377 122 70.127 122C68.335 122 66.2443 121.701 63.855 121.104V120.08C65.8177 120.592 67.567 120.848 69.103 120.848C73.455 120.848 76.783 118.203 79.087 112.912L89.839 90H89.711L65.903 26H74.863L94.703 79.376L114.287 38.8C115.311 37.008 115.823 34.8747 115.823 32.4C115.823 29.9253 115.14 28.048 113.775 26.768L114.543 26C114.884 26.1707 115.311 26.6827 115.823 27.536C116.42 28.3893 116.762 29.1573 116.847 29.84C117.018 30.5227 117.103 31.1627 117.103 31.76C117.103 34.064 116.591 36.4107 115.567 38.8L90.991 90L80.239 112.912ZM177.365 90C173.866 90 171.178 89.232 169.301 87.696C167.509 86.16 166.57 84.624 166.485 83.088L166.357 80.912V40.72C166.357 33.9787 164.608 29.6693 161.109 27.792C159.317 26.9387 157.098 26.512 154.453 26.512C148.992 26.512 144.085 28.688 139.733 33.04C135.381 37.3067 133.205 41.1467 133.205 44.56V90H124.245V26H133.205V40.592C134.656 36.9227 137.344 33.5093 141.269 30.352C145.194 27.1093 149.504 25.488 154.197 25.488C158.89 25.488 162.688 25.9573 165.589 26.896C168.576 27.7493 170.752 28.9867 172.117 30.608C174.25 33.2533 175.317 36.6667 175.317 40.848V80.912C175.317 83.3867 175.786 85.3067 176.725 86.672C177.749 87.952 178.773 88.6347 179.797 88.72L181.205 88.976H185.173V90H177.365ZM244.484 90C238.681 90 234.713 88.8907 232.58 86.672C230.617 84.7947 229.636 83.1733 229.636 81.808V79.12C225.455 86.7147 218.756 90.512 209.54 90.512C198.788 90.512 192.687 85.648 191.236 75.92C191.065 74.896 190.98 73.872 190.98 72.848C190.98 71.7387 191.151 70.544 191.492 69.264C191.833 67.984 192.815 66.576 194.436 65.04C197.679 61.968 204.804 60.0907 215.812 59.408C218.543 59.152 221.06 59.024 223.364 59.024C225.668 59.024 227.759 59.1093 229.636 59.28V38.032C229.465 37.9467 229.465 37.5627 229.636 36.88C229.807 36.112 229.636 35.1733 229.124 34.064C228.697 32.8693 228.1 31.7173 227.332 30.608C226.564 29.4987 225.199 28.56 223.236 27.792C221.273 26.9387 218.713 26.512 215.556 26.512C212.399 26.512 208.687 27.1093 204.42 28.304C200.239 29.4133 197.167 30.5227 195.204 31.632L194.692 30.736C202.287 27.2373 210.009 25.488 217.86 25.488C226.649 25.488 232.452 27.0667 235.268 30.224C237.487 32.6987 238.596 35.3013 238.596 38.032V80.912C238.596 83.3867 239.065 85.3067 240.004 86.672C241.028 87.952 242.052 88.6347 243.076 88.72L244.484 88.976H248.452V90H244.484ZM211.588 89.488C216.111 89.488 220.164 87.952 223.748 84.88C227.417 81.7227 229.38 78.6933 229.636 75.792V60.304C227.332 60.1333 224.985 60.048 222.596 60.048C220.292 60.048 217.988 60.176 215.684 60.432C209.199 61.2 204.975 62.6507 203.012 64.784C201.049 66.9173 200.068 69.8613 200.068 73.616C200.068 74.2987 200.111 75.0667 200.196 75.92C200.964 84.9653 204.761 89.488 211.588 89.488ZM256.775 26H265.735V41.872C267.186 37.9467 269.874 34.2347 273.799 30.736C277.724 27.2373 282.162 25.488 287.111 25.488C304.434 25.488 313.095 35.6427 313.095 55.952C313.095 78.992 301.916 90.512 279.559 90.512C275.548 90.512 270.94 89.5733 265.735 87.696V122H256.775V26ZM286.983 26.512C281.692 26.512 276.914 28.816 272.647 33.424C268.38 37.9467 266.076 42.0427 265.735 45.712V86.544C270.94 88.5067 275.506 89.488 279.431 89.488C295.9 89.488 304.135 78.2667 304.135 55.824C304.135 36.2827 298.418 26.512 286.983 26.512ZM327.21 1.424C337.109 0.741328 345.813 0.399994 353.322 0.399994C374.485 0.399994 385.066 7.86666 385.066 22.8C385.066 29.712 383.274 35.7707 379.69 40.976C377.813 43.792 374.911 46.0533 370.986 47.76C367.061 49.3813 362.325 50.192 356.778 50.192H337.834V90H327.21V1.424ZM353.45 1.67999C348.501 1.67999 343.295 1.97866 337.834 2.576V48.912H356.778C368.81 48.4 374.826 39.7813 374.826 23.056C374.826 16.2293 373.034 10.9813 369.45 7.312C365.866 3.55733 360.533 1.67999 353.45 1.67999ZM446.984 90C441.181 90 437.213 88.8907 435.08 86.672C433.117 84.7947 432.136 83.1733 432.136 81.808V79.12C427.955 86.7147 421.256 90.512 412.04 90.512C401.288 90.512 395.187 85.648 393.736 75.92C393.565 74.896 393.48 73.872 393.48 72.848C393.48 71.7387 393.651 70.544 393.992 69.264C394.333 67.984 395.315 66.576 396.936 65.04C400.179 61.968 407.304 60.0907 418.312 59.408C421.043 59.152 423.56 59.024 425.864 59.024C428.168 59.024 430.259 59.1093 432.136 59.28V38.032C431.965 37.9467 431.965 37.5627 432.136 36.88C432.307 36.112 432.136 35.1733 431.624 34.064C431.197 32.8693 430.6 31.7173 429.832 30.608C429.064 29.4987 427.699 28.56 425.736 27.792C423.773 26.9387 421.213 26.512 418.056 26.512C414.899 26.512 411.187 27.1093 406.92 28.304C402.739 29.4133 399.667 30.5227 397.704 31.632L397.192 30.736C404.787 27.2373 412.509 25.488 420.36 25.488C429.149 25.488 434.952 27.0667 437.768 30.224C439.987 32.6987 441.096 35.3013 441.096 38.032V80.912C441.096 83.3867 441.565 85.3067 442.504 86.672C443.528 87.952 444.552 88.6347 445.576 88.72L446.984 88.976H450.952V90H446.984ZM414.088 89.488C418.611 89.488 422.664 87.952 426.248 84.88C429.917 81.7227 431.88 78.6933 432.136 75.792V60.304C429.832 60.1333 427.485 60.048 425.096 60.048C422.792 60.048 420.488 60.176 418.184 60.432C411.699 61.2 407.475 62.6507 405.512 64.784C403.549 66.9173 402.568 69.8613 402.568 73.616C402.568 74.2987 402.611 75.0667 402.696 75.92C403.464 84.9653 407.261 89.488 414.088 89.488ZM469.864 112.912C467.133 118.971 463.763 122 459.752 122C457.96 122 455.869 121.701 453.48 121.104V120.08C455.443 120.592 457.192 120.848 458.728 120.848C463.08 120.848 466.408 118.203 468.712 112.912L479.464 90H479.336L455.528 26H464.488L484.328 79.376L503.912 38.8C504.936 37.008 505.448 34.8747 505.448 32.4C505.448 29.9253 504.765 28.048 503.4 26.768L504.168 26C504.509 26.1707 504.936 26.6827 505.448 27.536C506.045 28.3893 506.387 29.1573 506.472 29.84C506.643 30.5227 506.728 31.1627 506.728 31.76C506.728 34.064 506.216 36.4107 505.192 38.8L480.616 90L469.864 112.912Z" fill="black"/>
</svg>
